<svg xmlns="http://www.w3.org/2000/svg" xmlns:xlink="http://www.w3.org/1999/xlink" id="header-logo" data-name="Layer 1" width="307px" height="96px" viewBox="0 0 306.5 95.5"><defs><style>.cls-1-header-logo{fill:url(#New_Gradient_Swatch_7);}.cls-2-header-logo{fill:url(#New_Gradient_Swatch_7-2);}.cls-3-header-logo{fill:url(#New_Gradient_Swatch_7-3);}.cls-4-header-logo{fill:url(#New_Gradient_Swatch_7-4);}.cls-5-header-logo{fill:#f5f3e7;}</style><linearGradient id="New_Gradient_Swatch_7" x1="-8.52" y1="15.82" x2="89.16" y2="95.36" gradientUnits="userSpaceOnUse"><stop offset="0" stop-color="#f3d096"></stop><stop offset="0.48" stop-color="#dbb77b"></stop><stop offset="1" stop-color="#ab875b"></stop></linearGradient><linearGradient id="New_Gradient_Swatch_7-2" x1="-4.64" y1="11.05" x2="93.05" y2="90.59" xlink:href="#New_Gradient_Swatch_7"></linearGradient><linearGradient id="New_Gradient_Swatch_7-3" x1="-1.76" y1="7.64" x2="95.93" y2="87.18" xlink:href="#New_Gradient_Swatch_7"></linearGradient><linearGradient id="New_Gradient_Swatch_7-4" x1="303.8" y1="36.7" x2="92.21" y2="61.03" xlink:href="#New_Gradient_Swatch_7"></linearGradient></defs><path class="cls-1-header-logo" d="M51.49,71.45c1.2.28,3.2.91,5.13,1.53,1.39.43,2.7.85,3.61,1.1,2.72.75,4.72,1.32,6.46,1.84,1.31.4,2.52.78,3.78,1.19l1.4.46c1.85.62,3.95,1.34,6.75,2.31l2.85,1-.09-.21a4.92,4.92,0,0,0-.24-.45c-1-1.59-3.47-3.73-7-6-1.1-.73-2.32-1.47-3.62-2.22-1.78-1-3.57-2-5.34-2.81-4.5-2.14-11-4.81-18.52-7.9l-8.75-3.61C39.5,68.12,49.48,71,51.49,71.45Z"></path><path class="cls-2-header-logo" d="M73,69c1.2.75,2.39,1.55,3.54,2.38a38.92,38.92,0,0,1,6.39,5.65,11.58,11.58,0,0,1,.93,1.19,9.73,9.73,0,0,1,.78,1.36,8.09,8.09,0,0,1,.56,1.55,1,1,0,0,0,.73.72l.94.21a10.73,10.73,0,0,0-.92-4.16,16.51,16.51,0,0,0-.81-1.64,36.13,36.13,0,0,0-6.37-8c-.86-.84-1.78-1.71-2.75-2.56C68.23,58.92,56.71,51.42,44.35,45.2l-.21-.11c-5.45-2.79-10.67-5.71-15.28-8.28-3.29-1.83-6.4-3.57-9.13-5l-.22-.11C18.2,40,23.15,47,33.49,51.35,37,52.85,41,54.49,44.93,56.07c8.7,3.54,17.69,7.21,22.78,9.95C69.58,67,71.34,68,73,69Z"></path><path class="cls-3-header-logo" d="M90.1,68,90,67.83l.07-.15A47.26,47.26,0,0,0,20.77,8.49l7.8,5.09a1.6,1.6,0,0,0,1.61.07A38,38,0,0,1,85.1,44a37,37,0,0,1-.95,12.85.89.89,0,0,1-.66.66.92.92,0,0,1-.91-.29c-5.16-6-12.19-11.88-22.13-18.68l-.34-.22c-4-2.61-20-12.68-32.6-20.68L14.4,9.39C7.83,4.74,5.25,1.24,4.46,0A14.32,14.32,0,0,0,2.89,5.86c0,.1,0,.19,0,.28l0,.43c0,.13,0,.26,0,.41l0,.13a16.43,16.43,0,0,0,4.67,10.8,3,3,0,0,1,.33,3.63A47.42,47.42,0,0,0,.12,44.2c-1.84,25.09,17,47.7,42.05,50.42A47.39,47.39,0,0,0,78,83.53L67.85,80.44a2.25,2.25,0,0,0-1.75.21A37.63,37.63,0,0,1,41,85.13,38,38,0,0,1,15.46,26.8,2.46,2.46,0,0,1,18.74,26L54.21,45.71C64.61,52,72.53,57.61,78.42,63c.85.78,1.62,1.52,2.31,2.21a45,45,0,0,1,6.66,8.26c.41.68.8,1.38,1.14,2.08a18.92,18.92,0,0,1,2,11.27l0,.11a5.62,5.62,0,0,1-.63,1.86l-.22.52-.33-.45a4.07,4.07,0,0,0-3.3-1.68,4.32,4.32,0,0,0-1.18.17,4.12,4.12,0,0,0-.78,7.58,4.46,4.46,0,0,0,2.11.56,6,6,0,0,0,4.78-2c2.94-3,4.07-9.47,2.83-16.24A29.18,29.18,0,0,0,90.1,68Z"></path><rect class="cls-4-header-logo" x="108.93" y="46.08" width="197.57" height="3.34"></rect><path class="cls-5-header-logo" d="M116,34.29a4.73,4.73,0,0,0-4.17,2.65l.68.59a3.67,3.67,0,0,1,3.13-1.89c1,0,2,.44,3.62,1.69s3,2.14,4.8,2.14a4.4,4.4,0,0,0,4-2.78l-.37-.47a3.8,3.8,0,0,1-2.45.86c-1.3,0-2.57-.56-4.48-1.46a14.78,14.78,0,0,0-3.2-1.19h.2c5.05,0,8.81-3.07,8.81-8.78s-3.76-8.76-8.81-8.76-8.81,3.08-8.81,8.76C108.93,30.69,111.83,33.67,116,34.29Zm1.74-16.2c3.17,0,5,2.78,5,7.56s-1.81,7.58-5,7.58-5-2.78-5-7.58S114.57,18.09,117.74,18.09Z"></path><path class="cls-5-header-logo" d="M132.17,27.92c0,3.64,1.85,6.51,6.8,6.51,5.42,0,6.67-3.44,6.67-6.74V18.46l2.09-.64v-.61h-6.44v.61l2.71.64v9c0,2.56-.65,5.41-4.31,5.41-4.06,0-4.16-3.19-4.16-5.14v-9.3l2.84-.64v-.61h-8.31v.61l2.11.64Z"></path><polygon class="cls-5-header-logo" points="159.47 17.82 159.47 17.21 151.33 17.21 151.33 17.82 153.69 18.46 153.69 32.85 151.33 33.49 151.33 34.11 159.47 34.11 159.47 33.49 157.1 32.85 157.1 18.46 159.47 17.82"></polygon><path class="cls-5-header-logo" d="M172.76,18.09c2.41,0,4.14,1.33,5.15,4.35l1-.22c-.19-1.59-.27-3-.32-4.36a14.12,14.12,0,0,0-5.58-.95c-6.52,0-9.54,3.51-9.54,8.49,0,6,3.67,9,9.41,9a10.58,10.58,0,0,0,5.44-1.29l.71-3.69-.95-.28c-1,2.76-2.47,4-5,4-3.08,0-5.73-2.42-5.73-7.86C167.39,20.75,169.34,18.09,172.76,18.09Z"></path><path class="cls-5-header-logo" d="M200.15,34.24l.11-.57a12.59,12.59,0,0,1-3.1-3,40.44,40.44,0,0,1-4.2-6.44c1.68-1.91,3.32-3.74,5.09-5.63l1.91-.74V17.2h-6.4v.62l2.33.71-5.75,7a39.42,39.42,0,0,0,3.66,6.17C195.4,33.91,197.16,34.64,200.15,34.24Z"></path><polygon class="cls-5-header-logo" points="183.66 33.49 183.66 34.11 191.46 34.11 191.46 33.49 189.19 32.85 189.19 18.46 191.46 17.82 191.46 17.21 183.66 17.21 183.66 17.82 185.84 18.46 185.84 32.85 183.66 33.49"></polygon><path class="cls-5-header-logo" d="M210.37,33.2c-2.36,0-4.07-1.29-4.81-4.38h-.79c0,1.52-.14,3-.28,4.37a11.77,11.77,0,0,0,5.45,1.18c3.81,0,6.37-1.77,6.37-4.87s-2.09-4.26-4.69-5.35l-1-.43c-1.66-.7-3.28-1.49-3.28-3.27,0-1.51,1.14-2.36,2.78-2.36,2.19,0,3.67,1.12,4.68,4.07l.9-.13a37.78,37.78,0,0,1-.32-4.3,12.61,12.61,0,0,0-4.66-.81c-3.84,0-6.11,1.81-6.1,4.75,0,3.12,2.38,4.2,4.26,5l1.06.45c1.81.79,3.48,1.47,3.48,3.48C213.42,32.15,212.31,33.2,210.37,33.2Z"></path><polygon class="cls-5-header-logo" points="229.12 17.82 229.12 17.21 220.99 17.21 220.99 17.82 223.34 18.46 223.34 32.85 220.99 33.49 220.99 34.11 229.12 34.11 229.12 33.49 226.75 32.85 226.75 18.46 229.12 17.82"></polygon><path class="cls-5-header-logo" d="M233.37,33.51v.6h13.34V28.87h-.85l-.94,3.27a21.36,21.36,0,0,1-6,.82V18.46l2.45-.64v-.61h-8v.61l2.17.64v14.4Z"></path><path class="cls-5-header-logo" d="M256.73,34.11a7.64,7.64,0,0,0,2.74,0l3.73-10c.7-1.86,1.4-3.61,2.15-5.6l2.14-.7v-.61h-7.14v.61l3,.7c-.6,1.83-1.2,3.53-1.78,5.22L260.09,28c-.39,1.13-.69,2-1,3.09-.32-1.09-.64-2.09-1-3.09l-3.45-9.52,3-.68v-.61h-8.85v.61l2.12.68Z"></path><path class="cls-5-header-logo" d="M284.33,29.09h-.88l-.84,3a23.52,23.52,0,0,1-6.7.86V25.61a21.1,21.1,0,0,1,4,.42l.66,2h.69V22.19h-.69l-.66,1.93a22.06,22.06,0,0,1-4,.43V18.33a19.83,19.83,0,0,1,6.31.84l1,2.44H284l-.11-4.4H270.39v.61l2.13.64v14.4l-2.13.63v.62H284.3Z"></path><path class="cls-5-header-logo" d="M297,33.49l-2.45-.63v-6.1a20.34,20.34,0,0,0,2.4-.15,26.78,26.78,0,0,0,2.56,4.94c1.53,2.37,3.43,3.95,6.12,2.86l.13-.54a11.52,11.52,0,0,1-2.71-2.77,27.68,27.68,0,0,1-3-5.19c2.27-.86,3.67-2.36,3.67-4.57,0-3.52-3.73-4.13-7.06-4.13H289v.61l2.2.64v14.4l-2.2.63v.62h8Zm-2.45-15.08a8.76,8.76,0,0,1,1.68-.16c2.66,0,3.85,1.08,3.85,3.38,0,2-.75,3.18-2.25,3.76a12.49,12.49,0,0,1-3.28-.07Z"></path><path class="cls-5-header-logo" d="M131.27,68.34l-1-.42c-1.67-.71-3.29-1.49-3.29-3.28,0-1.5,1.14-2.35,2.78-2.35,2.2,0,3.68,1.11,4.69,4.07l.89-.13a40.42,40.42,0,0,1-.32-4.3,12.41,12.41,0,0,0-4.66-.82c-3.83,0-6.11,1.82-6.1,4.76,0,3.11,2.39,4.19,4.26,5l1.07.46c1.81.78,3.47,1.46,3.47,3.47,0,1.54-1.1,2.6-3.05,2.6-2.35,0-4.07-1.29-4.8-4.38h-.8a43,43,0,0,1-.28,4.36,11.69,11.69,0,0,0,5.46,1.19c3.81,0,6.36-1.77,6.36-4.87S133.86,69.44,131.27,68.34Z"></path><path class="cls-5-header-logo" d="M150.5,77.38c-3.08,0-5.73-2.42-5.73-7.85,0-4.58,1.95-7.24,5.37-7.24,2.41,0,4.14,1.33,5.15,4.35l1-.23c-.19-1.58-.27-3-.32-4.35a13.93,13.93,0,0,0-5.58-1c-6.52,0-9.55,3.52-9.55,8.5,0,6,3.68,9,9.42,9a10.61,10.61,0,0,0,5.44-1.29l.71-3.69-.95-.28C154.48,76.11,153,77.38,150.5,77.38Z"></path><polygon class="cls-5-header-logo" points="161.03 62.02 163.39 62.66 163.39 77.05 161.03 77.69 161.03 78.3 169.17 78.3 169.17 77.69 166.8 77.05 166.8 62.66 169.17 62.02 169.17 61.41 161.03 61.41 161.03 62.02"></polygon><path class="cls-5-header-logo" d="M185.64,76.28a23.91,23.91,0,0,1-6.69.85V69.81a21,21,0,0,1,4,.41l.67,2h.69V66.39h-.69l-.67,1.93a21.85,21.85,0,0,1-4,.42V62.53a19.91,19.91,0,0,1,6.31.83l1,2.44H187l-.11-4.39H173.42V62l2.13.64V77.05l-2.13.64v.61h13.91l0-5h-.88Z"></path><path class="cls-5-header-logo" d="M203.84,62l2.59.67c0,1.81,0,3.76.06,5.4l0,5.41L198,61.41h-5.93V62a23.87,23.87,0,0,1,2.47.91L194.37,71c0,1.34-.08,4-.13,6l-2.13.68v.61h6.57v-.61L196.13,77c0-2.09-.07-4.1-.1-6.07L196,64.23l10,14.1a4.72,4.72,0,0,0,2-.08L208.14,68l.1-5.35,2.07-.67v-.61h-6.47Z"></path><path class="cls-5-header-logo" d="M213.83,66.08h.76l.86-2.77a10.25,10.25,0,0,1,3.79-.92V77.05l-2.23.64v.61h7.86v-.61l-2.24-.64V62.39a9.87,9.87,0,0,1,3.79.92l.86,2.77h.77V61.39H213.83Z"></path><polygon class="cls-5-header-logo" points="231.97 62.02 234.33 62.66 234.33 77.05 231.97 77.69 231.97 78.3 240.1 78.3 240.1 77.69 237.73 77.05 237.73 62.66 240.1 62.02 240.1 61.41 231.97 61.41 231.97 62.02"></polygon><path class="cls-5-header-logo" d="M244.36,61.41V62l2.17.65V77.05l-2.17.65v.6h8v-.61L250,77.05V70.37a22.37,22.37,0,0,1,3.94.42l.66,2h.7V67h-.7l-.66,1.94a24.37,24.37,0,0,1-3.94.4V62.53a19.71,19.71,0,0,1,6.21.83l1,2.43H258l-.12-4.38Z"></path><polygon class="cls-5-header-logo" points="262.16 62.02 264.52 62.66 264.52 77.05 262.16 77.69 262.16 78.3 270.3 78.3 270.3 77.69 267.93 77.05 267.93 62.66 270.3 62.02 270.3 61.41 262.16 61.41 262.16 62.02"></polygon><path class="cls-5-header-logo" d="M284,77.38c-3.08,0-5.73-2.42-5.73-7.85,0-4.58,1.95-7.24,5.37-7.24,2.41,0,4.14,1.33,5.15,4.35l1-.23c-.19-1.58-.27-3-.32-4.35a13.93,13.93,0,0,0-5.58-1c-6.52,0-9.54,3.52-9.54,8.5,0,6,3.67,9,9.41,9a10.58,10.58,0,0,0,5.44-1.29l.71-3.69-.95-.28C287.93,76.11,286.48,77.38,284,77.38Z"></path></svg>